# xmcd
#
# Track frame offsets: 
#        150
#        18149
#        42717
#        56878
#        71175
#        98864
#        113631
#        130822
#
# Disc length: 1928 seconds
#
# Revision: 0
# Processed by: cddbd v1.5.2PL0 Copyright (c) Steve Scherf et al.
# Submitted via: ExactAudioCopy v1.0b4
#
DISCID=70078608
DTITLE=Clarence 'Bluesman' Davis and Jock Webb - Before You Accuse Me
DYEAR=2015
DGENRE=Blues
TTITLE0=Before You Accuse Me
TTITLE1=CC Rider
TTITLE2=5 O'Clock Blues
TTITLE3=Pants Too Tight
TTITLE4=Blues All Over Me
TTITLE5=Shame On You
TTITLE6=Shake 'em On Down
TTITLE7=Fast Boogie
EXTD=
EXTT0=
EXTT1=
EXTT2=
EXTT3=
EXTT4=
EXTT5=
EXTT6=
EXTT7=
PLAYORDER=
